<svg fill="none" height="202" viewBox="0 0 246 202" width="246" xmlns="http://www.w3.org/2000/svg"
    xmlns:xlink="http://www.w3.org/1999/xlink">
    <mask id="a" height="202" maskUnits="userSpaceOnUse" width="246" x="0" y="0">
        <path d="m0 0h246v202h-246z" fill="#ffffff" />
    </mask>
    <g mask="url(#a)">
        <path
            d="m-3.04004 194.796c17.13434-15.069 55.10464-48.365 58.22304-50.241 4.039-2.429 3.6368-4.449 7.6738-4.05 4.039.408 6.465 3.239 10.0998 2.837 3.6387-.405 2.0219-2.837 7.2705-4.856 5.2515-2.025 3.2306 2.427 9.2915.808 1.7066-.458 3.449-.768 5.2083-.929-.5881-.502-.953-.895-.953-.895 0-.289-.1416-1.52-.8644-2.894-.7238-1.378-1.301-3.475-1.5184-5.865-.2154-2.388-.1446-4.488-.2853-6.948-.1494-2.459 1.0081-5.571 1.9472-10.929.9392-5.356 1.1575-4.992 2.3858-7.164 1.2274-2.171 1.0091-.508.72-1.956-.2891-1.446.5074-2.0247 1.0857-2.9659.5773-.9403.4336-3.4732.1415-5.2137-.2891-1.7356.5114-2.0963.651-2.8927.1456-.7973-.2153-1.0122.2194-3.62.4327-2.6039.6491-7.8176.6491-10.1317 0-2.3161-.8685-2.7498-.8685-2.7498l.0728 9.1905c-.0728.7963-1.1555 1.6646-1.1555 1.6646s-3.9721 0-4.6959-.1438c-.1021-.0217-.2007-.0576-.293-.1065-.5084-.2779-.7179-.9077-.7179-.9077l-.2164-12.3019c.1445-.8703.9402-1.0891.9402-1.0891l.2871-1.5198c.7809-.7391 2.2275-.6583 3.3968-.4297l.7927-1.9563s-.0708-.8693-.2891-1.9564c-.2163-1.0841.289-.6515-1.0819-1.8085-1.3748-1.1571-3.1066-3.1105-3.6839-6.153-.5773-3.0395-1.0119-3.3292-1.0119-3.3292-.5783 1.2299-.8694 5.2826-.7927 6.1539.0699.8683.5774 1.157.5774 1.157-.0748 2.1723-1.5923 0-1.5923 0-.2881-.7234.4347-4.1256.4347-5.9351 0-1.8105.0737-3.5461.2183-6.4427.1426-2.8926.362-3.5441 1.1546-5.4995.7946-1.9544.7238 1.0132 1.2293-1.3049.2557-1.1679.9706-2.7606 1.6639-4.1443.0492-1.919-.0157-3.8753.0699-4.6835.1445-1.3749 1.0827-1.5207 1.3719-1.8105.2911-.2888 1.1564-.2888 1.5183-1.3009.361-1.0142-.3618-1.1591-.649-3.9108-.2891-2.7498 1.8784-3.3273 2.671-4.7051.7946-1.3729 2.8896-1.5917 4.6236-1.6647 1.734-.069 2.963.5815 3.902 1.0152.938.4366 1.298-.2908 2.454-.7234 1.155-.4357 1.085-.6505 2.672 0 1.589.6494 2.817 1.16 2.817 1.16s-.071 1.228.289 0c.364-1.232 1.374-.4366 1.952-1.0171.577-.5786.289-.8673-.649-2.6049-.939-1.7376.289-2.6069 0-4.0527-.289-1.4498-.289-4.56321.435-5.86318.72-1.30293 2.237-2.38805 3.176-2.53293.938-.14389 3.541-.50855 4.696-.57951 1.157-.07097 2.6.86927 3.684 1.88244 1.085 1.01515 1.229 2.02635 1.519 3.25733.289 1.22905-.219 5.06685-.219 5.06685.939 2.462-1.082 4.4134-1.082 4.4134.433 2.1012-1.664 3.9827-1.664 3.9827.683 2.2254 2.075 3.4495 3.096 3.4002 1.021-.0502 1.686 1.025 2.759 1.9958s1.686.9708 2.707 1.8923c1.018.9196 1.274 2.4541 2.244 3.7846.97 1.3315 1.124 1.3315 2.656 2.1486 1.53.821 1.174 3.07 2.246 3.8358 1.072.7688 1.686 0 2.603.3066.919.3075.92 1.9957 1.737 1.9957.816 0 1.43.9235 1.993 1.1788.561.2562 1.633.1547 2.806.3065 1.175.1528 2.093 1.6883 2.501 1.8401.41.1537 3.373-.409 4.189-.3548.816.0492 1.428 1.3275 1.786 1.4813.357.1518 2.655.1015 3.267 0 .615-.1025.715-.409 1.38-1.6361.664-1.228 2.807-1.5867 3.164-1.84.357-.2573.715-.5648.256-.8723-.461-.3075-.256-1.5335-.256-1.5335s3.473.1527 3.883.1527c.407 0 .153.6643-.358.9708-.51.3056-.154 1.6883-.154 1.6883s-2.503-.3055-.049.207c2.448.5105 1.734 5.7784 1.734 5.7784 1.684.9245-2.196 1.9968-2.196 1.9968l.295 74.0629c4.937-.498 1.901 13.901 1.901 13.901 9.769 18.4 18.363 29.267 25.786 32.597 7.645 3.432 21.853 3.186 32.822 6.368 8.213 2.383 38.804 14.465 80.283 16.751 8.615.475 13.265.946 13.95 1.415 14.575.353 46.729.931 96.465 1.733v3.942h-1343.368v-3.942c15.364-3.526 23.56-5.404 24.586-5.633 1.538-.344 21.809 3.273 25.398 1.895 3.591-1.378 7.052-.977 9.616-1.895 2.565-.919 6.925-.861 11.924-2.412 3.401-1.055 14.041-5.769 17.119-5.756 3.077.015 16.411 1.595 21.797 2.512 5.384.92 10 1.493 40.516 6.2 30.516 4.71 48.467 2.296 65.135 1.723 16.669-.574 23.592-1.492 28.978-1.262 5.385.229 24.104 2.296 38.978 1.378 14.873-.919 16.156.344 30.003 1.492s78.213 1.034 123.346-1.952c45.132-2.986 8.501-2.417 68.981.689 60.967 3.132 122.769 3.785 155.593 1.375 32.824-2.413 33.465-4.285 40.388-3.712 6.924.575 44.557 4.978 97.126 2.452 52.5695-2.526 34.2983-2.405 44.8122-.109 10.5139 2.297 15.8991-.113 23.8492 0 7.9491.116 17.6939 3.068 29.2335 2.149 4.1599-.33 11.926-1.3 20.59106-2.496zm100.50184-128.4024-1.0571 2.2767c.6225.1646 1.0571.3292 1.0571.3292-.1456-.8654 1.5882-4.7771 1.5882-5.4286 0-.6505-.7936-.0709-.7936-.0709zm13.4632 67.2334s.276 0 .736-.003l.598-39.9103c-.371.8447-.653 1.4833-.793 1.7347-.673 1.2162-2.019 4.3178-2.695 6.2076-.672 1.889 0 2.833-.267 4.183-.27 1.348-1.08 1.618-1.348 4.046-.269 2.427-3.366 5.667-2.826 7.015.536 1.35-1.481 4.856-1.213 7.148.27 2.295-.404 5.265.135 7.017.538 1.754 0 4.721 0 4.721-.121.538-.258 1.015-.41 1.445.987-.656 1.971-1.879 2.429-4.412.81-4.452 5.655.809 5.655.809zm11.457-.809c.1-.118.194-.251.257-.404.407-.943-.941-6.071-.941-8.095 0-2.022 1.211-2.967 2.291-4.181 1.077-1.216.135-2.429.403-3.913.27-1.483.673-2.832.941-5.664.273-2.835 2.693-9.85 4.578-12.1421 1.885-2.2964 2.156-1.7544.269-2.2964-1.885-.5381-3.633-2.2915-5.518-4.5829-1.886-2.2964-5.386-6.7483-7.003-7.0173-.913-.1518-2.557 2.9695-3.936 5.9302l-1.161 43.1625c2-.032 5.353-.119 7.251-.393.492-.07 1.399-.215 2.569-.404zm21.937-36.8296c.27 2.1585-.942 4.3176-1.481 6.0716-.541 1.754-1.482 2.159-2.692 6.206-1.213 4.046-1.348 6.071-2.423 8.363-1.079 2.293-3.501 3.374-2.693 3.643.806.268.135 3.239.135 3.239s1.21 1.889 2.016 2.427c.81.54 2.56.812 5.116.675 2.56-.135 3.908.406 2.695 2.563-.165.292-.474.572-.885.839 3.503.232 3.282 1.765 10.042-1.245 3.688-1.639 10.282-2.659 15.889-3.262l-1.583-73.0534c-.715-.0512-1.246-.5785-1.246-.5785l-.271 1.7494-.673-1.2123s-.669 1.6193-2.554 1.8884c-1.888.271-2.158-.8101-2.83-1.2123-.675-.407-1.75.4022-3.1.8072-1.347.4041-2.015-.271-3.23-1.0762-1.213-.8131-3.229.4001-3.903.4001-.675 0-2.021-.4001-2.557-.8072-.541-.406-3.637-.8081-4.445-.6751-.807.1341-.807-.5371-1.479-1.4803-.675-.9462-2.157-.8121-3.101-1.0832-.941-.27-2.557-1.0782-4.443-2.6955-1.885-1.6203-5.655-4.5888-5.655-4.5888.27.541-1.885 2.1584-1.345 3.2395.538 1.0783-.672 3.5067-.672 3.5067s.672.134 1.075 1.0792c.405.9442-1.075 5.5291-1.075 5.5291h2.557c2.559 0 .944 1.4833 1.75 2.2964.809.8062 1.211.9432 1.348 2.9675.132 2.0234.537 4.3178.403 6.3402-.136 2.0224.134 2.4285.134 2.4285s-.537 0-1.75.4041-.809 1.4852-.809 1.4852-1.748-1.0811.269.9442c2.02 2.0224 9.294 14.7048 11.58 16.7272 0 0 1.615 4.9929 1.886 7.1503zm-49.6236-61.3993c.0364-.0759.0688-.138.0934-.1843.3609-.7254 1.4456-.5795 1.5882-2.319.1456-1.7347-1.5164-.071-1.5164-.071-.5311.7806-.4169 1.7681-.1652 2.5743z"
            fill="#fff" />
    </g>
</svg>